# xmcd
#
# Track frame offsets:
# 150
# 11785
# 26765
# 42575
# 51880
# 69015
# 80572
# 90037
# 101930
# 115375
# 126855
# 141390
# 157330
# 173450
# 184450
# 199432
# 211125
#
# Disc length: 2975 seconds
#
#
# Revision: 0
# Processed by: cddbd v1.5.1PL0 Copyright (c) Steve Scherf et al.
# Submitted via: FreeRIP 2.942 
#
DISCID=f70b9d11
DTITLE=Various Artist - Blues and Soul Legends
DYEAR=1995
DGENRE=Blues
TTITLE0=The Drifters - Saturday Night At The Movies
TTITLE1=George McCrae - Rock Your Baby
TTITLE2=Lou Rawls - Lady Love
TTITLE3=James Brown - Papa's Got A Brand New Bag
TTITLE4=Brook Benton - Rainy Night In Georgia
TTITLE5=The Tams - Hey Girl Don't Bother Me
TTITLE6=The Shirelles - Dedicated To The One I Love
TTITLE7=Clarence Carter - Band Of Gold
TTITLE8=Dobie Gray - The In Crowd
TTITLE9=Eats Domino - Blue Monday
TTITLE10=Del Vikings - Come Go With Me
TTITLE11=The Ink Spots - If I Didn't Care
TTITLE12=Dobie Gray - Drift Away
TTITLE13=Fats Domino - Walkin' To New Orleans
TTITLE14=The Platters - The Great Pretender
TTITLE15=The Platters - Only You
TTITLE16=Fats Domino - Blueberry Hill
EXTD=
EXTT0=
EXTT1=
EXTT2=
EXTT3=
EXTT4=
EXTT5=
EXTT6=
EXTT7=
EXTT8=
EXTT9=
EXTT10=
EXTT11=
EXTT12=
EXTT13=
EXTT14=
EXTT15=
EXTT16=
PLAYORDER=
